# xmcd
#
# Track frame offsets: 
#        150
#        15448
#        30939
#        49908
#        61731
#        75062
#        84071
#        98161
#        113969
#        128581
#        142317
#        158327
#
# Disc length: 2318 seconds
#
# Revision: 0
# Processed by: cddbd v1.5.2PL0 Copyright (c) Steve Scherf et al.
# Submitted via: ExactAudioCopyFreeDBPlugin 1.0
#
DISCID=7a090c0c
DTITLE=ブレッド＆バター - バーベキュー
DYEAR=1974
DGENRE=Folk
TTITLE0=魔術
TTITLE1=ピンク・シャドウ
TTITLE2=愛の歌
TTITLE3=飛行室
TTITLE4=うつろな安息日
TTITLE5=アフター・ザ・バーベキュー “ゲット・トゥゲザー"
TTITLE6=地下鉄
TTITLE7=夕暮れ（つらい夜）
TTITLE8=子豚と×××
TTITLE9=メモリー
TTITLE10=朝の陽
TTITLE11=ピンク・シャドウ (Single version)
EXTD=
EXTT0=
EXTT1=
EXTT2=
EXTT3=
EXTT4=
EXTT5=
EXTT6=
EXTT7=
EXTT8=
EXTT9=
EXTT10=
EXTT11=
PLAYORDER=
